<svg width="1200" height="900" viewBox="0 0 1200 900" fill="none" xmlns="http://www.w3.org/2000/svg">
  <defs>
    <linearGradient id="bg" x1="0" y1="0" x2="1" y2="1">
      <stop offset="0%" stop-color="#080A2A"/>
      <stop offset="45%" stop-color="#050058"/>
      <stop offset="100%" stop-color="#000182"/>
    </linearGradient>
    <linearGradient id="body" x1="0" y1="0" x2="0" y2="1">
      <stop offset="0%" stop-color="#E2E7F1"/>
      <stop offset="50%" stop-color="#AAB2C1"/>
      <stop offset="100%" stop-color="#7A8194"/>
    </linearGradient>
  </defs>

  <rect width="1200" height="900" fill="url(#bg)"/>
  <ellipse cx="600" cy="770" rx="340" ry="78" fill="#030438" fill-opacity="0.6"/>

  <rect x="380" y="185" width="440" height="530" rx="64" fill="url(#body)"/>
  <rect x="420" y="235" width="360" height="350" rx="40" fill="#FBFCFF" fill-opacity="0.94"/>
  <rect x="450" y="615" width="300" height="62" rx="31" fill="#6F7790"/>

  <circle cx="600" cy="265" r="18" fill="#CE9B01"/>
  <circle cx="600" cy="265" r="9" fill="#FFF4D0"/>

  <rect x="495" y="505" width="210" height="34" rx="17" fill="#D2D8E6"/>
  <rect x="540" y="516" width="120" height="12" rx="6" fill="#9AA3B7"/>

  <g opacity="0.42">
    <path d="M600 172C646 132 646 74 600 28C554 74 554 132 600 172Z" fill="#E8EDF8"/>
    <path d="M536 198C574 162 574 112 536 76C498 112 498 162 536 198Z" fill="#E8EDF8"/>
    <path d="M664 198C702 162 702 112 664 76C626 112 626 162 664 198Z" fill="#E8EDF8"/>
  </g>
</svg>
