<svg width="1200" height="900" viewBox="0 0 1200 900" fill="none" xmlns="http://www.w3.org/2000/svg">
  <defs>
    <linearGradient id="bg" x1="0" y1="0" x2="1" y2="1">
      <stop offset="0%" stop-color="#050058"/>
      <stop offset="55%" stop-color="#000182"/>
      <stop offset="100%" stop-color="#161A3A"/>
    </linearGradient>
    <linearGradient id="metal" x1="0" y1="0" x2="0" y2="1">
      <stop offset="0%" stop-color="#B6BDCB"/>
      <stop offset="55%" stop-color="#8E95A8"/>
      <stop offset="100%" stop-color="#6D7486"/>
    </linearGradient>
    <radialGradient id="goldGlow" cx="0" cy="0" r="1" gradientUnits="userSpaceOnUse" gradientTransform="translate(600 620) rotate(90) scale(220 480)">
      <stop offset="0%" stop-color="#CE9B01" stop-opacity="0.45"/>
      <stop offset="100%" stop-color="#CE9B01" stop-opacity="0"/>
    </radialGradient>
  </defs>

  <rect width="1200" height="900" fill="url(#bg)"/>
  <ellipse cx="600" cy="760" rx="310" ry="70" fill="#050058" fill-opacity="0.5"/>
  <ellipse cx="600" cy="760" rx="210" ry="34" fill="#050058" fill-opacity="0.7"/>

  <rect x="430" y="230" width="340" height="470" rx="56" fill="url(#metal)"/>
  <rect x="458" y="262" width="284" height="300" rx="34" fill="#F4F5FA" fill-opacity="0.96"/>
  <rect x="458" y="580" width="284" height="90" rx="25" fill="#DCE1EC"/>

  <rect x="545" y="610" width="110" height="18" rx="9" fill="#7D869A"/>
  <circle cx="600" cy="305" r="13" fill="#CE9B01"/>

  <path d="M600 220C640 180 640 126 600 82C560 126 560 180 600 220Z" fill="#E8EDF7" fill-opacity="0.45"/>
  <path d="M560 246C592 212 592 164 560 130C528 164 528 212 560 246Z" fill="#E8EDF7" fill-opacity="0.25"/>
  <path d="M640 246C672 212 672 164 640 130C608 164 608 212 640 246Z" fill="#E8EDF7" fill-opacity="0.25"/>

  <rect x="0" y="0" width="1200" height="900" fill="url(#goldGlow)"/>
</svg>
